<?xml version="1.0" encoding="UTF-8" standalone="no"?>
<svg
   height="32"
   width="32"
   version="1.1"
   id="svg6"
   sodipodi:docname="chrome_beta.svg"
   inkscape:version="1.1.1 (3bf5ae0d25, 2021-09-20, custom)"
   xmlns:inkscape="http://www.inkscape.org/namespaces/inkscape"
   xmlns:sodipodi="http://sodipodi.sourceforge.net/DTD/sodipodi-0.dtd"
   xmlns="http://www.w3.org/2000/svg"
   xmlns:svg="http://www.w3.org/2000/svg">
  <defs
     id="defs10" />
  <sodipodi:namedview
     id="namedview8"
     pagecolor="#ffffff"
     bordercolor="#666666"
     borderopacity="1.0"
     inkscape:pageshadow="2"
     inkscape:pageopacity="0.0"
     inkscape:pagecheckerboard="0"
     showgrid="false"
     inkscape:zoom="16.166667"
     inkscape:cx="14.041237"
     inkscape:cy="16.85567"
     inkscape:window-width="1920"
     inkscape:window-height="965"
     inkscape:window-x="0"
     inkscape:window-y="34"
     inkscape:window-maximized="1"
     inkscape:current-layer="svg6" />
  <path
     id="path2"
     style="stroke-width:1.77782"
     d="M 16,0 C 11.04,0 6.5596875,2.2397847 3.6796875,5.7599294 l 5.28125,9.1213526 C 9.4409375,11.521144 12.48,8.8010315 16,8.8010315 H 30.240234 C 27.680234,3.520814 22.24,0 16,0 Z M 2.5605469,7.1994236 A 16.643555,16.644239 0 0 0 0,16.000455 c 0,0.600913 0.03560937,1.190529 0.09960937,1.775442 H 8.7402344 Z M 16,10.400687 c -3.825343,6.7e-5 -6.5229878,3.749549 -5.308594,7.377163 H 21.308594 C 22.522988,14.150236 19.825344,10.400754 16,10.400687 Z m 4.480469,0 c 1.6,1.280053 2.71875,3.359675 2.71875,5.599768 0,0.60447 -0.07458,1.204751 -0.216797,1.775442 h 8.914062 A 15.989333,15.989991 0 0 0 32,16.000455 C 32,14.080377 31.679062,12.16076 31.039062,10.400687 Z M 0.39453125,19.371645 C 1.3387434,23.782074 4.1006106,27.589822 8,29.856318 c 4.950418,2.858243 11.049582,2.858243 16,0 3.899389,-2.266496 6.661256,-6.074244 7.605469,-10.484673 z m 8.83398435,3.029383 h 1.8281254 c 0.259555,0 0.497955,0.05863 0.714843,0.177739 0.218137,0.110131 0.404247,0.278044 0.535157,0.484389 0.139298,0.210633 0.210078,0.456524 0.205078,0.709004 0.0056,0.232754 -0.05891,0.46349 -0.189453,0.656269 -0.126514,0.183626 -0.302185,0.329166 -0.50586,0.419934 v 0.02735 c 0.24609,0.0772 0.460743,0.228552 0.617188,0.433606 0.165334,0.208005 0.25,0.453846 0.25,0.738302 0,0.284456 -0.07262,0.538983 -0.214844,0.75588 -0.142202,0.21254 -0.332143,0.385127 -0.558594,0.503922 -0.232067,0.123123 -0.495117,0.185356 -0.757812,0.183598 H 9.2285156 Z M 17.693359,22.8444 h 0.0039 0.603515 v 1.021513 h 0.890625 v 0.54689 h -0.890625 v 1.978573 c 0,0.190229 0.03879,0.336525 0.115235,0.441418 0.08,0.103123 0.212847,0.156255 0.390625,0.156255 0.07498,8.69e-4 0.149796,-0.0108 0.220703,-0.03516 0.06229,-0.02166 0.119922,-0.04894 0.175781,-0.08399 v 0.587907 c -0.157376,0.06613 -0.325461,0.09897 -0.496094,0.09375 -0.269925,0.01296 -0.534128,-0.08416 -0.734375,-0.265633 -0.192318,-0.199462 -0.294781,-0.47142 -0.279297,-0.748068 V 24.412803 H 17.0625 v -0.54689 h 0.630859 z m -7.8613278,0.130863 v 1.625046 h 1.2246098 c 0.162629,0.0042 0.323696,-0.03689 0.46289,-0.121097 0.121456,-0.07795 0.21915,-0.186249 0.289063,-0.312509 0.06846,-0.113907 0.106036,-0.246031 0.107422,-0.378917 -0.0065,-0.277269 -0.151196,-0.532123 -0.384766,-0.68166 -0.132269,-0.08866 -0.28809,-0.135088 -0.447266,-0.130863 z m 5.1484378,0.779319 c 0.35911,0 0.669781,0.07845 0.925781,0.240242 0.259556,0.156452 0.460766,0.373238 0.597656,0.652361 0.173699,0.355009 0.238963,0.753709 0.195313,1.146518 h -2.859375 c 0.003,0.230515 0.05917,0.455895 0.166015,0.660174 0.210372,0.37966 0.612907,0.613187 1.046875,0.605487 0.231654,0.0098 0.462172,-0.05771 0.654297,-0.187506 C 15.879395,26.747839 16.021,26.588236 16.125,26.403095 l 0.511719,0.250007 c -0.142944,0.275552 -0.353107,0.509383 -0.611328,0.68166 -0.296536,0.189657 -0.64237,0.284014 -0.994141,0.271492 -0.329528,0.0051 -0.654581,-0.08096 -0.9375,-0.250007 -0.270468,-0.166327 -0.492083,-0.39907 -0.640625,-0.679707 -0.157008,-0.305531 -0.235731,-0.648745 -0.230469,-0.992215 0,-0.344902 0.07263,-0.665668 0.214844,-0.959013 0.138142,-0.284536 0.350873,-0.526553 0.613281,-0.703145 0.275483,-0.183246 0.598939,-0.276129 0.929688,-0.267585 z m 6.216797,0 c 0.492445,0 0.875362,0.129289 1.15625,0.390636 0.279112,0.259566 0.417968,0.607951 0.417968,1.048858 v 2.29694 h -0.574218 v -0.517593 h -0.0293 c -0.15352,0.252121 -0.3893,0.441756 -0.667969,0.539079 -0.160536,0.06405 -0.331074,0.09559 -0.503906,0.09375 -0.246491,0.005 -0.490338,-0.04812 -0.710938,-0.158207 -0.195584,-0.09606 -0.361245,-0.24078 -0.482422,-0.421887 -0.11488,-0.188934 -0.175255,-0.407828 -0.171875,-0.628925 0,-0.266677 0.07013,-0.488424 0.207032,-0.667987 0.141712,-0.188044 0.332199,-0.329631 0.552734,-0.412122 0.388603,-0.143924 0.812146,-0.181543 1.21875,-0.101565 0.138672,0.0249 0.253963,0.05463 0.353516,0.09375 0.08197,0.02355 0.160476,0.05898 0.234375,0.101565 v -0.222663 c 0.0104,-0.251679 -0.09687,-0.491878 -0.291016,-0.652362 -0.200282,-0.163435 -0.450595,-0.251627 -0.708984,-0.244147 -0.195395,-7.51e-4 -0.388816,0.0472 -0.5625,0.136722 -0.165944,0.08123 -0.307133,0.207361 -0.40625,0.363292 l -0.457032,-0.34376 c 0.09595,-0.142628 0.218182,-0.264441 0.357422,-0.365245 0.146496,-0.107539 0.310754,-0.190449 0.484375,-0.244147 0.189667,-0.05704 0.385934,-0.08565 0.583985,-0.08399 z m -6.21875,0.54689 c -0.219458,-0.0043 -0.434438,0.05904 -0.615235,0.183599 -0.176024,0.124308 -0.314804,0.292477 -0.40039,0.490248 -0.04245,0.102643 -0.07627,0.209376 -0.09766,0.318369 h 2.208985 c -0.0062,-0.109635 -0.03062,-0.215976 -0.07031,-0.318369 -0.03971,-0.121587 -0.104622,-0.234176 -0.191406,-0.328134 -0.09099,-0.108115 -0.207963,-0.190562 -0.337891,-0.2461 -0.155054,-0.07079 -0.323801,-0.104842 -0.49414,-0.09961 z m -5.1464848,0.875025 v 1.740285 h 1.3593748 c 0.165575,0.004 0.328122,-0.04142 0.46875,-0.128911 0.127608,-0.08411 0.231518,-0.195904 0.304688,-0.330087 0.0684,-0.126836 0.105752,-0.269982 0.107422,-0.414074 2.02e-4,-0.145588 -0.03974,-0.288426 -0.113282,-0.414075 -0.160059,-0.289895 -0.467861,-0.46368 -0.798828,-0.453138 z m 11.4218748,0.490249 c -0.346667,0 -0.599765,0.06888 -0.759765,0.212896 -0.15616,0.129876 -0.246191,0.324249 -0.244141,0.527359 0,0.199119 0.07563,0.35781 0.228516,0.480483 0.163949,0.128257 0.366203,0.19522 0.574218,0.187505 0.407717,-0.0086 0.782123,-0.227417 0.990235,-0.578141 0.102912,-0.174394 0.156009,-0.371743 0.154297,-0.574236 -0.126448,-0.08378 -0.265441,-0.148852 -0.41211,-0.187505 -0.17346,-0.04909 -0.350986,-0.07029 -0.53125,-0.06836 z" />
</svg>
