<svg xmlns="http://www.w3.org/2000/svg" viewBox="0 0 24 24">
  <path d="m7.47 2.44.06.15c.08.16.34.38.49.4-.04-.02-.17-.1-.4-.46l-.06-.1Zm.6 0a.98.98 0 0 1-.05.54c.01 0 .04-.03.08-.1a.9.9 0 0 0 .08-.44zm8.57 0-.01.22c-.02.36-.08.78-.12.93-.12.4-.41.8-.85 1.18l-.12-.27-.9-1.84a.03.03 0 0 0-.04-.01c-.01 0-.02.02-.01.04l.9 1.84.13.28-.3.24-.6.46.69.05c.2.01.4.04.56.07l.35.83.33.82.1.25.03.06v.03h.01l.25.68c.16.42.29.8.29.83 0 .09-.03.08-1.32-.26-1.1-.3-1.57-.46-2.34-.84a6.01 6.01 0 0 1-1.88-1.4c.2-.1.52-.24.85-.3a6 6 0 0 1 1.67-.08c.8.04 1.7.2 1.7.2s-1.1-.3-1.8-.37a4.45 4.45 0 0 0-2.11.27c-.14.06-.26.15-.36.23a4.93 4.93 0 0 1-.87-1.45l-.18-.46.04 1.4a8.86 8.86 0 0 0 1 4.4 6.34 6.34 0 0 0 .67 1.16c-.1-.05-.2-.08-.3-.11-.18-.04-.35-.07-.47-.11l-.36-.15-.38-.19a6.6 6.6 0 0 1-1.2-.72l-.17-.16-.01-.01-.17-.15.17.28a18.3 18.3 0 0 0 .86 1.13l.07.09-.29-.19-.32-.27-.14-.14c-.38-.5-1.01-.85-1.45-1.26a10.48 10.48 0 0 1-1.52-2c.23-.06.46-.1.76-.13h.12a.19.19 0 0 0-.05-.02s0-.02-.02-.03a1.06 1.06 0 0 0-.47-.06c-.2 0-.4-.02-.44-.07a5.43 5.43 0 0 1-.42-2.1c-.03-.6-.07-.92-.11-.91a17.33 17.33 0 0 1-.62 2.17c-.58 1.69-.8 2.5-1.02 3.6-.3 1.55-.26 1.46-.3.83l-.02-.12.02-.1-.03-.01c0-.03-.01-.03-.02 0h-.03l-.27 1.45a122.46 122.46 0 0 1-.35 1.7l-.42 1.63-.35 1.38.07.02.86-2.41c-.04.28-.11.79-.26 1.65-.09.54-.19 1.1-.3 1.57a6 6 0 0 1-.28 1.04c-.1.23-.17.57-.21.94l.06.16c.04-.42.1-.83.22-1.07.09-.2.19-.58.3-1.06a39 39 0 0 0 .29-1.57c.18-1.07.32-2.05.32-2.05l-.08-.02-.72 2.03.15-.59.42-1.62.14-.64.21-1.08.22-1.17v.5l-.05 2.22c-.02.6-.02.98 0 .85.02-.14.07-.25.1-.25.04 0 .31.28.61.62.3.34.7.72.9.84.2.11.44.32.53.46.39.63 1.18 1.13 2.79 1.76.91.36 1.01.41.95.52-.03.04-.3.17-.6.28-.3.11-.87.37-1.27.56l-.73.36-.4-.23c-.22-.13-.6-.43-.84-.68-.23-.24-.34-.34-.4-.35l-.06-.25c0-.03 0-.06-.02-.08 0 0-.06.02-.06.07l.03.06.1.35v.03l.13.43c.08.2.19.5.3.64l.03.02v-.03c0-.04-.02-.05-.03-.1a2.61 2.61 0 0 1-.12-.23c-.05-.1-.08-.22-.12-.32l-.11-.36c.08.05.27.21.48.42.26.25.57.5.7.55.12.05.23.12.23.16 0 .03.1.07.2.07.19 0 .2.01.06.07a1.6 1.6 0 0 0-.44.4l-.27.34.57.51.38.34h11.22c.45 0 .87-.1 1.24-.3.07-.22.17-.48.37-.88.2-.54.41-.98.52-1.7 0-.4.49-2.09.55-2.2a13.6 13.6 0 0 1-.76 1.4 8.21 8.21 0 0 1-2.21 2.2 5.95 5.95 0 0 1-4.16 1.1l-.3-.05.26-.15.6-.32a5.03 5.03 0 0 0 1.7-1.62 7.49 7.49 0 0 1 .9-1.1c.08-.1-.09 0-.38.23-.66.5-1.34.83-1.69.81h-.26l.27-.06c1.02-.2 2.22-1.95 2.52-3.72.2-1.14.11-3.17-.2-4.6a18.9 18.9 0 0 0-1.01-3v-.03l-.03-.06-.1-.25a91.9 91.9 0 0 0-.67-1.62c.17.03.3.07.4.12l.36.15.1.5-.07.1c-.1.14.17.78.43 1.14l.02.03.18.2h.01a20.6 20.6 0 0 0 2.12 1.7l.64.5a26.97 26.97 0 0 0 1.11.86l.22.17v-.19l-.04-.03a9.33 9.33 0 0 1-.83-.63 21.9 21.9 0 0 0-1.05-.81 45.88 45.88 0 0 1-1.67-1.23l-.22-.16c-.17-.14-.3-.28-.37-.36-.23-.32-.5-.87-.5-1.06 0-.07.04-.13.1-.13l.4.44c.23.24.51.51.7.65.19.14.8.5 1.39.86a41.27 41.27 0 0 1 1.07.68c.29.3.64.51.9.76.05.04.09.06.12.1v-.18c-.2-.16-.46-.41-.59-.58-.21-.28-.23-.35-.17-.54.05-.12.34-.48.65-.8l.11-.11V7.5c-.26.1-.69.04-1.44-.2l-.8-.23-.02-.7c-.04-1.32.33-2.09 1.4-2.93.17-.13.16-.13-.79-.13-.91 0-.98-.02-1.37-.22a4.77 4.77 0 0 1-.88-.66zm-5.88 2.68.26.53c.14.29.35.63.45.76.16.18.18.25.11.33-.07.07-.07.08.01.04.06-.04.19.02.34.17.93.87 2.56 1.66 4.91 2.36l.6.18.18.6c.16.5.19.74.18 1.5-.02 2.6-.6 3.73-2.87 5.6l-.78.65-.7.05c-.78.06-1.85.23-2.42.4l-.4.1-1.22-.4c-2.1-.69-2.73-1.19-3.53-2.76-.26-.51-.7-1.3-.97-1.76l-.5-.82.02-.8c.04-1.53.3-2.82 1.02-4.96l.54-1.62.06.42c.14.94.37 1.79.5 1.8l.47.03c-.39.03-.83.09-.92.14-.46.27-1.05.7-1.05.7.39-.02 1.03-.46 1.18-.52l.32-.12c.09.12.2.3.32.5a6.2 6.2 0 0 0 1.8 1.94c.25.15.49.33.54.4a5.65 5.65 0 0 0 .9.83l.44.28.13.07v.01l.03.01h.03l.02-.03-.01-.01v-.01h-.01l-.02-.01-.01-.01a1.39 1.39 0 0 1-.3-.29c-.12-.15-1.08-1.17-.24-.6a5.89 5.89 0 0 0 1.4.65l.03.01c.14.05.31.08.48.12.17.04.33.1.42.2v.01h.02l.03-.03v-.01l-.01-.01a3.93 3.93 0 0 1-.26-.4l-.07-.1a10 10 0 0 1-1.4-5.07Zm6.17.65h.05c.13.03.4.2.91.56.45.32 1 .66 1.24.76.62.28 1.51.6 1.83.65.31.06.35.13.17.28-.07.05-.2.24-.31.43-.15.24-.18.38-.15.56l.03.18a41.8 41.8 0 0 0-1.2-.77c-.6-.36-1.2-.73-1.38-.86a6.95 6.95 0 0 1-.7-.66L17 6.46c-.11-.25-.1-.51-.11-.58 0-.06.01-.1.05-.1zM6.47 9.71l.15.3.15.3-.4.14c-.59.2-.74.22-1.06.09L5 10.4l.25.26c.25.25.25.27.14.48-.15.29-.25.37-.58.46l-.26.07.29.06c.16.03.3.1.31.14l.12.44c.05.21.12.34.17.3.05-.02.06 0 .02.1-.03.08-.03.12 0 .09s.1-.01.16.04c.1.07.1.04.06-.22a1.7 1.7 0 0 1 .03-.62c.1-.37.5-.86.66-.8.06.02.09 0 .07-.03-.02-.03.04-.1.14-.14l.15-.07c-.38.36-.5 1.03-.34 1.69.23.88.92 1.45 1.54 1.28.62-.17.94-1.03.71-1.9a1.95 1.95 0 0 0-.72-1.11 3.94 3.94 0 0 1 .73.18c.17.06.16.04-.07-.17-.15-.12-.22-.2-.17-.18.05.02.1.03.1 0 0-.08-.59-.32-.91-.38a1.55 1.55 0 0 1-.97-.47Zm10.57.07-.15.31c-.22.46-.55.64-1.09.58-.42-.04-.43-.05-.43-.28a.79.79 0 0 0-.08-.34c-.05-.1-.07-.08-.07.07 0 .29-.18.5-.74.86-.54.36-1 .8-.85.8.08 0 .08.02 0 .12-.06.07.03.04.2-.07a3.28 3.28 0 0 1 1.84-.52c.35 0 .73.04.85.08.26.1.43.04.38-.15-.03-.08.02-.2.1-.27.08-.08.11-.1.07-.08-.07.06-.34.08-.34.03l.1-.24c.07-.12.13-.37.16-.56zm-8.87.35c-.04 0 .01.05.12.1.1.06.22.11.26.11.04 0 0-.05-.11-.1a.83.83 0 0 0-.27-.11zm5.84.61c0-.01-.1.03-.22.1-.13.08-.23.17-.23.2s.1-.01.23-.1c.12-.1.22-.18.22-.2zm7.55.43-.14.04c-.12.02-.42.04-.66.03-1.48-.02-2 .08-2.34.47-.33.4-.23.6.4.78.27.08 1.94.1 2.74.08v-.13c-.33-.02-.82-.03-1.37 0-.74.02-1.04 0-1.37-.1a.9.9 0 0 1-.42-.23c-.07-.1.11-.35.44-.57.26-.14.55-.18 1.57-.19.55 0 1-.03 1.15-.05zm-13.93.52c.22-.02.44.19.51.48.09.33-.03.64-.26.7-.22.07-.48-.14-.56-.47-.09-.32.03-.63.26-.7a.3.3 0 0 1 .05 0zm-3.42 1.29c.2 0 1.38 1.58 1.27 1.7-.03.03-.18-.03-.34-.12-.26-.16-.27-.16-.14-.02.07.08.23.2.35.25.17.06.25.16.3.38.05.16.1.35.13.4.08.23-.11.1-.6-.4-.98-1.01-1.04-1.1-1.04-1.68 0-.28.03-.51.07-.51zm13.75.83c.06 0 .09.15.07.47a6.48 6.48 0 0 1-.93 3.1l-.25.4h-1.48v-.3c0-.29.05-.36.71-1.05a7.44 7.44 0 0 0 1.56-2.14c.14-.32.25-.48.32-.48zm-4.76.55a.2.2 0 0 0-.1.02c-.35.31-.54.6-.8.92l-.08.1-.11.05c-.2.06-.43.13-.68.17-.15.02-.43 0-.67-.04a8.73 8.73 0 0 1-.45-.07.05.05 0 0 0-.06.04c0 .03.02.05.04.06a24.12 24.12 0 0 0 .37.06h.03l.05.01c.25.04.53.07.7.04a3.95 3.95 0 0 0 .92-.26l.05-.01c.37-.1.93-.41 1.05-.56.06-.1.08-.18.04-.27-.01-.18-.18-.26-.3-.26zm1.98 2.98c.02 0 .04.1.04.22 0 .2-.03.22-.3.24-.17.02-.3 0-.3-.02a2 2 0 0 1 .56-.44zm5.85.34-.03.3c-.01.21-.05.3-.15.32-.17.04-.17-.07.02-.38z"/>
  <rect width="19.56" height="19.56" x="2.22" y="2.22" fill="none" stroke="#000" stroke-linecap="round" stroke-width=".44" rx="2.93" ry="2.93"/>
</svg>