<svg xmlns="http://www.w3.org/2000/svg" viewBox="0 0 24 24">
  <path
    d="M5.154 2A3.152 3.152 0 0 0 2 5.154v13.692A3.152 3.152 0 0 0 5.154 22h13.692A3.152 3.152 0 0 0 22 18.846V5.154A3.152 3.152 0 0 0 18.846 2H5.154zm0 .44h2.317c.02.055.047.134.056.152.082.159.342.377.489.39-.038-.015-.17-.09-.399-.449-.013-.02-.034-.062-.05-.094h.503c.03.2.016.351-.039.502a.174.174 0 0 0-.011.041l.003.002c.007.005.033-.03.077-.105.06-.105.083-.277.078-.44h6.31c.006.043.093.237.1.25 0 0 .694 1.42.896 1.84.042.088.086.184.131.284-.091.08-.187.159-.29.238l-.61.463.691.045c.204.013.396.037.567.068.12.284.242.572.351.838.132.321.246.61.328.818l.098.246.025.065.008.017v.002h.002c0 .004.003.007.004.01h.002c.051.144.097.272.248.674.16.423.29.8.29.838 0 .08-.027.076-1.32-.266-1.095-.29-1.566-.457-2.335-.836-.774-.38-1.393-.845-1.881-1.394.206-.11.517-.251.848-.315.202-.07.879-.126 1.671-.078.793.048 1.702.197 1.702.197s-1.11-.294-1.797-.359c-.688-.065-1.53-.01-2.121.264-.14.064-.26.155-.352.236a4.93 4.93 0 0 1-.873-1.453l-.178-.461.036 1.39c.047 1.978.25 2.875.994 4.405.186.383.388.74.504.898h-.002c.056.106.119.196.171.272-.09-.05-.19-.09-.298-.115-.174-.041-.353-.065-.473-.114-.237-.095-.329-.135-.352-.144a15.72 15.72 0 0 0-.386-.192c-.456-.22-.991-.544-1.19-.72l-.181-.162-.008-.012-.002.002-.168-.149.168.284c.05.085.153.219.271.36.056.08.116.162.178.247.134.182.277.37.406.521.028.033.052.057.078.086-.098-.06-.198-.117-.287-.185a10.724 10.724 0 0 1-.32-.272c-.05-.048-.08-.08-.145-.14-.373-.506-1.007-.85-1.447-1.262-.397-.382-1.177-1.399-1.383-1.8a.708.708 0 0 0-.134-.192 4.14 4.14 0 0 1 .756-.133c.015-.001.034 0 .044-.002l.08-.008a.186.186 0 0 0-.048-.013c-.001-.008-.005-.016-.022-.028-.062-.043-.273-.072-.47-.064-.198.007-.396-.023-.44-.067-.172-.171-.381-1.21-.424-2.107-.028-.6-.067-.91-.111-.908-.027 0-.056.114-.084.343-.024.197-.267 1.016-.54 1.823-.573 1.698-.801 2.51-1.01 3.61-.297 1.547-.263 1.46-.313.825l-.012-.115.02-.107-.032-.006c-.005-.027-.01-.028-.013-.004l-.03-.004s-.131.708-.275 1.459c-.072.375-.146.762-.21 1.074a11.61 11.61 0 0 1-.138.631c-.05.17-.24.918-.42 1.627l-.35 1.375.073.023.855-2.414c-.04.28-.11.79-.257 1.655a38.98 38.98 0 0 1-.293 1.568c-.102.472-.205.86-.29 1.039-.105.224-.166.556-.207.912a2.742 2.742 0 0 1-.123-.814V5.154A2.705 2.705 0 0 1 5.154 2.44zm9.344 0h2.145l-.014.22c-.022.362-.076.782-.123.934-.12.388-.409.788-.844 1.177a16.254 16.254 0 0 0-.125-.267c-.202-.42-.894-1.842-.894-1.842a2.001 2.001 0 0 0-.145-.223zm3.162 0h1.186a2.705 2.705 0 0 1 2.715 2.714v2.36c-.267.094-.69.032-1.444-.198l-.79-.24-.024-.703c-.04-1.31.328-2.079 1.4-2.92.17-.133.153-.136-.79-.137-.915 0-.973-.032-1.376-.216-.233-.107-.62-.414-.873-.657a.137.137 0 0 1-.004-.004zm-6.9 2.681.26.527c.142.29.346.63.455.758.155.184.177.253.105.33-.072.078-.07.086.01.041.063-.036.19.026.34.168.932.88 2.564 1.664 4.91 2.362l.601.18.184.599c.154.501.183.747.178 1.502-.018 2.595-.599 3.73-2.873 5.611l-.782.645-.689.049c-.784.055-1.86.226-2.434.388l-.388.11-1.23-.403c-2.089-.684-2.73-1.184-3.526-2.754a33.64 33.64 0 0 0-.97-1.761l-.495-.82.018-.796c.033-1.539.296-2.83 1.013-4.968L5.99 5.27l.06.415c.14.949.37 1.794.495 1.802l.473.035c-.386.027-.83.085-.922.14-.453.266-1.047.694-1.047.694.387-.014 1.027-.454 1.18-.513.114-.045.22-.085.326-.12.082.111.196.293.31.499.383.692 1.21 1.578 1.809 1.941.242.147.483.325.535.395.052.07.278.288.5.484 0 0 .31.272.406.346.138.106.314.211.44.283.055.032.095.053.123.068l.011.01.018.01.006.002h.004l.002.002h.017l.02-.035-.006-.014-.004-.004h-.002c-.002-.001-.001-.003-.002-.004-.001 0-.004 0-.006-.002l-.013-.008-.014-.008c-.065-.033-.176-.14-.3-.287-.12-.155-1.08-1.175-.235-.603.13.093.497.281.814.418.32.137.514.213.59.234l.026.01c.132.053.31.077.48.117.17.04.327.098.414.203l.006.006.002.002v.002l.01.006.039-.04-.002-.003-.002-.002-.002-.004-.01-.012a3.01 3.01 0 0 1-.26-.4l-.004.002c-.022-.037-.027-.05-.064-.106-.508-.755-1.047-2.197-1.244-3.33a16.962 16.962 0 0 1-.162-1.728L10.76 5.12zm5.285.52c.162.032.302.071.404.115l.352.15.09.498-.065.098c-.1.148.175.789.438 1.146l-.002.002.021.026c.056.073.112.142.172.195l.02.018c.135.138.328.317.568.492.768.652 1.323 1.06 1.547 1.213.145.099.431.318.639.486.207.168.479.381.603.475l.512.388.217.164v.067l-.143.033a3.837 3.837 0 0 1-.662.037c-1.475-.028-2.004.078-2.332.467-.338.4-.235.607.39.78.278.076 1.94.108 2.747.077v6.278c0 1.043-.58 1.941-1.436 2.396a6.89 6.89 0 0 1 .361-.865c.198-.536.419-.972.528-1.688.002-.413.476-2.076.547-2.212.027-.049-.348.733-.403.804a7.621 7.621 0 0 0-.361.602c-.344.619-1.368 1.636-2.207 2.191-1.4.927-2.916 1.332-4.16 1.112l-.301-.053.264-.153c.144-.084.415-.228.603-.318.52-.25 1.119-.826 1.688-1.627.282-.398.57-.765.636-.816.068-.051.189-.174.272-.272.083-.098-.087.002-.377.219-.666.499-1.35.83-1.694.818l-.263-.01.27-.052c1.025-.2 2.218-1.957 2.527-3.72.199-1.139.108-3.17-.205-4.593-.183-.827-.754-2.529-1.01-3.015V7.59l-.008-.018-.025-.066-.098-.246a91.832 91.832 0 0 0-.664-1.62zm.889.132a.13.13 0 0 1 .048.002c.13.025.4.196.91.557.445.314 1.001.657 1.235.76.625.276 1.516.592 1.838.652.305.057.346.125.164.276-.065.053-.205.245-.31.425-.145.247-.18.387-.145.565l.03.178a1.665 1.665 0 0 0-.112-.084 7.896 7.896 0 0 0-.285-.19 41.796 41.796 0 0 0-.809-.5c-.589-.358-1.205-.725-1.383-.857-.179-.133-.46-.41-.691-.653-.143-.15-.292-.3-.434-.449-.112-.242-.099-.507-.113-.578 0-.06.016-.096.057-.104zm.037.739c.019.021.19.206.41.435.233.243.51.518.697.657.188.139.8.503 1.389.86.294.18.581.357.806.5.108.07.2.13.272.18.284.303.635.508.904.752.043.04.074.064.112.096v.928c-.015-.01-.024-.021-.041-.031a9.333 9.333 0 0 1-.83-.63 20.373 20.373 0 0 0-1.053-.814c-.264-.186-.68-.489-.924-.672-.244-.183-.578-.43-.744-.548l-.221-.16a4.38 4.38 0 0 1-.365-.366c-.234-.322-.505-.874-.506-1.054 0-.073.042-.133.094-.133zm4.59 1.281v2.02a3.83 3.83 0 0 1-.59-.577c-.215-.28-.234-.346-.166-.539.042-.12.334-.475.648-.789.043-.043.069-.074.108-.115zM6.467 9.707l.15.3.149.302-.387.138c-.595.211-.752.224-1.072.09l-.295-.123.25.258c.243.25.247.266.136.48-.147.285-.253.368-.576.455l-.263.073.289.056c.158.032.299.096.312.143.014.046.065.244.115.44.055.21.125.337.172.308.05-.031.059 0 .024.092-.03.078-.03.117 0 .088.03-.03.103-.012.164.039.095.079.104.048.058-.219a1.705 1.705 0 0 1 .032-.62c.098-.365.503-.859.656-.8.058.022.088.011.066-.023-.021-.035.044-.101.145-.147l.146-.066c-.373.355-.507 1.026-.336 1.685.23.88.92 1.453 1.541 1.281.621-.171.937-1.022.707-1.902-.124-.471-.388-.878-.722-1.11a5.315 5.315 0 0 1 .736.186c.165.057.157.036-.074-.168-.145-.128-.222-.212-.17-.185.052.026.094.03.094.008 0-.085-.58-.328-.905-.381-.434-.071-.746-.225-.966-.477l-.176-.201zm10.57.076-.146.307c-.218.456-.554.635-1.09.58-.422-.043-.43-.048-.432-.277a.79.79 0 0 0-.074-.346c-.058-.09-.073-.074-.074.076-.002.282-.183.491-.742.86-.542.355-1.007.792-.846.792.08 0 .077.024-.006.125-.057.07.033.037.2-.072.521-.343 1.135-.515 1.845-.515.352 0 .732.034.846.078.266.101.427.04.378-.147-.022-.085.022-.2.106-.277.078-.073.109-.105.068-.074-.072.056-.343.079-.343.029 0-.014.049-.124.109-.244s.129-.37.154-.557l.047-.338zm-8.863.344c-.042 0 .01.048.113.107.104.06.222.108.264.108.041 0-.01-.049-.114-.108a.832.832 0 0 0-.263-.107zm5.84.615c0-.015-.103.032-.227.106-.124.073-.225.16-.225.193 0 .034.1-.014.225-.105.124-.092.227-.179.227-.194zm-9.92.272c-.005.134-.008.214-.012.498-.008.62-.027 1.619-.045 2.218-.017.6-.016.98.004.846s.067-.244.104-.244c.036 0 .309.278.607.62.298.34.706.716.906.833.2.117.433.325.518.461.39.631 1.186 1.133 2.793 1.764.915.36 1.012.413.947.517-.026.043-.294.17-.594.284-.3.113-.871.367-1.271.562l-.729.356-.402-.231a4.634 4.634 0 0 1-.836-.676c-.235-.242-.348-.345-.398-.35-.036-.129-.058-.217-.067-.251a.148.148 0 0 0-.017-.082c-.002 0-.065.018-.057.07a.23.23 0 0 0 .025.064c.02.073.051.196.094.35l.008.023c.042.149.088.309.13.436.074.204.184.498.307.635.005.005.572.85.637.943l-.04.05.577.515c.168.149.242.218.37.336h-2.5a2.7 2.7 0 0 1-2.533-1.74c.04-.413.105-.802.217-1.042.092-.195.191-.58.293-1.054.101-.474.204-1.036.295-1.573.182-1.074.32-2.052.32-2.052l-.072-.02-.72 2.031.15-.591c.18-.71.372-1.462.42-1.624.025-.087.077-.325.14-.638.063-.313.137-.699.209-1.074.115-.602.183-.966.22-1.17zm17.467.287v1.138a14.087 14.087 0 0 0-1.372-.003c-.74.029-1.036.009-1.37-.088-.236-.068-.395-.193-.423-.237-.067-.11.119-.349.44-.572.264-.14.556-.175 1.572-.19.553-.007.993-.029 1.153-.048zm-13.926.392c.215-.018.433.187.51.48.084.324-.032.637-.26.7-.229.063-.482-.147-.567-.47-.084-.324.034-.637.262-.7a.297.297 0 0 1 .055-.01zM4.21 12.98c.204 0 1.383 1.586 1.266 1.703-.025.024-.175-.031-.332-.123-.265-.156-.276-.159-.149-.018.076.084.236.194.358.244.162.067.241.168.3.387.044.163.099.345.121.404.086.224-.107.093-.586-.398-.991-1.02-1.044-1.109-1.044-1.688 0-.282.029-.511.066-.511zm13.744.83c.066-.002.09.154.072.466-.068 1.178-.365 2.17-.927 3.096l-.254.418h-1.476v-.309c0-.289.048-.361.711-1.05.794-.826 1.235-1.433 1.559-2.145.143-.316.25-.475.316-.476zm-4.76.552a.198.198 0 0 0-.103.024v.002c-.342.306-.534.594-.793.912l-.082.107-.112.041a3.863 3.863 0 0 1-.671.172c-.15.023-.434-.003-.676-.037-.242-.034-.445-.074-.445-.074a.05.05 0 0 0-.06.04.05.05 0 0 0 .04.06 24.12 24.12 0 0 0 .367.064c.01 0 .02 0 .03.002l.052.008c.245.034.53.063.707.037a3.946 3.946 0 0 0 .91-.26l.053-.014c.366-.1.928-.407 1.049-.552.059-.11.074-.183.041-.274-.015-.18-.181-.258-.307-.258zm1.98 2.977c.024 0 .044.099.044.219 0 .199-.025.22-.301.246-.166.016-.3.006-.3-.022 0-.054.49-.443.558-.443zm5.852.34-.023.299c-.016.215-.058.308-.152.326-.173.032-.167-.077.021-.38l.154-.245zm-15.279 1.02c.08.048.271.212.484.42.259.25.572.498.698.55.125.052.228.124.228.16 0 .036.093.07.207.072.184.005.19.012.053.067-.085.034-.28.215-.434.402l-.228.281c-.02-.044-.048-.101-.07-.168-.165-.25-.553-.827-.567-.867-.033-.06-.098-.14-.139-.236-.05-.103-.082-.216-.12-.317a8.753 8.753 0 0 1-.112-.365z" />
</svg>