<?xml version="1.0" encoding="UTF-8" standalone="no"?>
<svg
   width="32"
   height="32"
   version="1.1"
   id="svg4"
   sodipodi:docname="nekogram_x.svg"
   inkscape:version="1.1.1 (3bf5ae0d25, 2021-09-20, custom)"
   xmlns:inkscape="http://www.inkscape.org/namespaces/inkscape"
   xmlns:sodipodi="http://sodipodi.sourceforge.net/DTD/sodipodi-0.dtd"
   xmlns="http://www.w3.org/2000/svg"
   xmlns:svg="http://www.w3.org/2000/svg">
  <defs
     id="defs8" />
  <sodipodi:namedview
     id="namedview6"
     pagecolor="#ffffff"
     bordercolor="#666666"
     borderopacity="1.0"
     inkscape:pageshadow="2"
     inkscape:pageopacity="0.0"
     inkscape:pagecheckerboard="0"
     showgrid="false"
     inkscape:zoom="90.509668"
     inkscape:cx="12.429611"
     inkscape:cy="28.046728"
     inkscape:window-width="1920"
     inkscape:window-height="965"
     inkscape:window-x="0"
     inkscape:window-y="34"
     inkscape:window-maximized="1"
     inkscape:current-layer="svg4" />
  <path
     id="path2"
     style="fill:#000000;stroke-width:1.56098"
     d="M 16 0 C 7.168075 0 0 7.168075 0 16 C 0 24.831925 7.168075 32 16 32 C 24.831925 32 32 24.831925 32 16 C 32 7.168075 24.831925 0 16 0 z M 23.662109 6.8710938 C 23.737519 6.8594618 23.832539 6.8644663 23.951172 6.8789062 C 25.006391 7.0037847 27.876448 8.2059926 29.359375 9.1425781 C 29.542328 9.2582693 29.675174 9.3804596 29.802734 9.5820312 C 30.710332 11.532165 31.21875 13.705941 31.21875 16 C 31.21875 24.410118 24.410118 31.21875 16 31.21875 C 15.516771 31.21875 15.038078 31.192407 14.566406 31.148438 C 14.453814 31.109098 14.399461 31.042808 14.322266 30.878906 C 14.00851 30.209248 13.825574 29.427386 13.613281 27.871094 C 13.394745 26.26641 13.384247 26.220809 12.853516 24.728516 C 11.976247 22.263735 11.917478 21.955594 11.814453 19.283203 C 11.756693 17.784666 11.814561 15.863308 11.923828 15.490234 C 11.986268 15.287308 12.218053 15.221924 12.705078 15.273438 C 13.487127 15.356177 14.34377 15.753126 16.365234 16.955078 C 17.876257 17.852638 18.39812 18.089851 18.871094 18.097656 C 19.147387 18.102256 19.227172 18.05609 19.851562 17.494141 C 21.078491 16.38897 21.663771 15.987797 23.365234 15.091797 C 23.814794 14.856089 24.213321 14.599924 24.253906 14.523438 C 24.308546 14.420414 24.281122 14.105903 24.148438 13.353516 C 23.723852 10.955856 23.386326 8.3788673 23.384766 7.5390625 C 23.384766 7.0813064 23.43589 6.905994 23.662109 6.8710938 z M 27.136719 16.941406 C 27.059139 16.940633 26.982741 16.945071 26.90625 16.957031 C 26.707764 16.988021 26.52309 17.061908 26.363281 17.173828 C 25.690162 17.645767 25.59792 18.677001 26.158203 19.476562 C 26.719539 20.275617 27.719562 20.538766 28.392578 20.066406 C 29.065696 19.594467 29.157941 18.565187 28.597656 17.765625 L 28.59375 17.765625 C 28.234345 17.254452 27.679799 16.946808 27.136719 16.941406 z M 18.898438 23.396484 C 18.820728 23.395839 18.744557 23.401973 18.667969 23.414062 C 18.469484 23.445052 18.28481 23.518939 18.125 23.630859 C 17.449989 24.10272 17.357659 25.135191 17.919922 25.935547 C 18.482112 26.733801 19.484005 26.99666 20.15625 26.523438 C 20.829368 26.051496 20.919658 25.022218 20.359375 24.222656 C 19.999338 23.710475 19.442379 23.400999 18.898438 23.396484 z " />
</svg>
