<?xml version="1.0" encoding="UTF-8" standalone="no"?>
<svg xml:space="preserve" width="32" height="32" version="1.1" id="svg6" sodipodi:docname="sbrowser.svg"
   inkscape:version="1.1.1 (3bf5ae0d25, 2021-09-20, custom)"
   xmlns:inkscape="http://www.inkscape.org/namespaces/inkscape"
   xmlns:sodipodi="http://sodipodi.sourceforge.net/DTD/sodipodi-0.dtd" xmlns="http://www.w3.org/2000/svg"
   xmlns:svg="http://www.w3.org/2000/svg">
   <defs id="defs10" />
   <sodipodi:namedview id="namedview8" pagecolor="#ffffff" bordercolor="#666666" borderopacity="1.0"
      inkscape:pageshadow="2" inkscape:pageopacity="0.0" inkscape:pagecheckerboard="0" showgrid="false"
      inkscape:zoom="13.125" inkscape:cx="9.9809524" inkscape:cy="15.352381" inkscape:window-width="1920"
      inkscape:window-height="965" inkscape:window-x="0" inkscape:window-y="34" inkscape:window-maximized="1"
      inkscape:current-layer="svg6" />
   <path fill="none" stroke="#000000" stroke-width="1.59997"
      d="m 3.515333,12.571127 a 12.785313,12.785311 0 0 0 8.8862,15.743645 12.785313,12.785311 0 0 0 15.743647,-8.8878 A 12.785313,12.785311 0 0 0 19.257378,3.6849276 12.785313,12.785311 0 0 0 3.515333,12.571127"
      id="path2" />
   <path
      d="m 7.6240408,6.054474 c -5.2446824,0 -6.85584612,2.1855507 -7.35183506,3.4879215 -0.49598885,1.3007705 -0.73758343,3.9999095 3.18392866,7.4878315 2.4191456,2.14395 5.9054669,4.143907 9.8285796,5.631873 3.924712,1.484766 7.857423,2.310348 11.090951,2.310348 5.254282,0 6.867046,-2.185551 7.351834,-3.486321 0.49599,-1.300771 0.737584,-3.99991 -3.183929,-7.487832 -0.032,-0.0272 -0.0688,-0.0544 -0.1008,-0.0832 0.348792,2.092752 0.159996,4.175906 -0.47839,6.095862 -0.0032,0.0144 0,0.0368 -0.0048,0.048 -0.0032,0.008 -0.0144,0.01601 -0.0176,0.024 l -0.0016,0.0048 h -0.0016 c -0.159996,0.281593 -1.199974,0.84478 -3.55192,0.84478 -2.71034,0 -6.23506,-0.747182 -9.654184,-2.047953 -3.419118,-1.292769 -6.5454479,-3.07833 -8.5758023,-4.875089 -1.8159592,-1.612764 -2.2031506,-2.758338 -2.095953,-3.030332 0.0064,-0.0192 0.0288,-0.0432 0.046399,-0.064 A 12.828513,12.828511 0 0 1 7.792037,6.0592739 l -0.1695962,-0.0048 z"
      id="path4">
</svg>